<?xml version="1.0" encoding="UTF-8" standalone="no"?>
<svg
   version="1.1"
   width="779.8111"
   height="779.8111"
   id="svg2"
   inkscape:version="1.2.2 (732a01da63, 2022-12-09)"
   sodipodi:docname="electrum_darkblue.svg"
   inkscape:export-filename="/home/voegtlin/logos/electrum_blue.png"
   inkscape:export-xdpi="10.014582"
   inkscape:export-ydpi="10.014582"
   xmlns:inkscape="http://www.inkscape.org/namespaces/inkscape"
   xmlns:sodipodi="http://sodipodi.sourceforge.net/DTD/sodipodi-0.dtd"
   xmlns:xlink="http://www.w3.org/1999/xlink"
   xmlns="http://www.w3.org/2000/svg"
   xmlns:svg="http://www.w3.org/2000/svg"
   xmlns:rdf="http://www.w3.org/1999/02/22-rdf-syntax-ns#"
   xmlns:cc="http://creativecommons.org/ns#"
   xmlns:dc="http://purl.org/dc/elements/1.1/">
  <metadata
     id="metadata53">
    <rdf:RDF>
      <cc:Work
         rdf:about="">
        <dc:format>image/svg+xml</dc:format>
        <dc:type
           rdf:resource="http://purl.org/dc/dcmitype/StillImage" />
        <dc:title />
      </cc:Work>
    </rdf:RDF>
  </metadata>
  <sodipodi:namedview
     pagecolor="#ffffff"
     bordercolor="#666666"
     borderopacity="1"
     objecttolerance="10"
     gridtolerance="10"
     guidetolerance="10"
     inkscape:pageopacity="0"
     inkscape:pageshadow="2"
     inkscape:window-width="2048"
     inkscape:window-height="1081"
     id="namedview51"
     showgrid="true"
     showguides="true"
     inkscape:guide-bbox="true"
     inkscape:zoom="0.35355339"
     inkscape:cx="770.74639"
     inkscape:cy="291.32799"
     inkscape:window-x="-8"
     inkscape:window-y="-8"
     inkscape:window-maximized="1"
     inkscape:current-layer="svg2"
     inkscape:showpageshadow="false"
     showborder="false"
     inkscape:document-rotation="0"
     fit-margin-top="43.371585"
     fit-margin-left="5"
     fit-margin-right="5"
     fit-margin-bottom="43.37159"
     inkscape:pagecheckerboard="0"
     inkscape:deskcolor="#d1d1d1">
    <inkscape:grid
       type="xygrid"
       id="grid40"
       originx="0.8417048"
       originy="30.067951" />
  </sodipodi:namedview>
  <defs
     id="defs4">
    <linearGradient
       id="linearGradient7437">
      <stop
         style="stop-color:#f2c9ae;stop-opacity:1;"
         offset="0"
         id="stop7433" />
      <stop
         style="stop-color:#bd820c;stop-opacity:1;"
         offset="1"
         id="stop7435" />
    </linearGradient>
    <linearGradient
       id="linearGradient7431">
      <stop
         style="stop-color:#f2caaf;stop-opacity:1;"
         offset="0"
         id="stop7427" />
      <stop
         style="stop-color:#bd820c;stop-opacity:1;"
         offset="1"
         id="stop7429" />
    </linearGradient>
    <linearGradient
       id="linearGradient2343">
      <stop
         style="stop-color:#f2c9ae;stop-opacity:1;"
         offset="0"
         id="stop2339" />
      <stop
         style="stop-color:#bd820c;stop-opacity:1;"
         offset="1"
         id="stop2341" />
    </linearGradient>
    <linearGradient
       id="linearGradient3987">
      <stop
         style="stop-color:#1382ef;stop-opacity:1;"
         offset="0"
         id="stop4032" />
      <stop
         style="stop-color:#0056c0;stop-opacity:1;"
         offset="1"
         id="stop3991" />
    </linearGradient>
    <radialGradient
       inkscape:collect="always"
       xlink:href="#linearGradient7431"
       id="radialGradient3786"
       cx="523.18433"
       cy="732.08508"
       fx="523.18433"
       fy="732.08508"
       r="146.04732"
       gradientTransform="matrix(-0.89061708,0.86297075,-0.78291311,-0.80799475,1427.0215,361.93374)"
       gradientUnits="userSpaceOnUse" />
    <radialGradient
       inkscape:collect="always"
       xlink:href="#linearGradient7437"
       id="radialGradient3796"
       cx="529.57996"
       cy="728.15845"
       fx="529.57996"
       fy="728.15845"
       r="146.04732"
       gradientTransform="matrix(-0.87083717,0.55292729,-0.71897156,-1.1320773,466.94349,499.54907)"
       gradientUnits="userSpaceOnUse" />
    <radialGradient
       inkscape:collect="always"
       xlink:href="#linearGradient2343"
       id="radialGradient3800"
       cx="505.65533"
       cy="726.3916"
       fx="505.65533"
       fy="726.3916"
       r="146.04732"
       gradientTransform="matrix(-0.94821917,1.3404019,-1.4302101,-1.0037148,1646.3221,-657.08623)"
       gradientUnits="userSpaceOnUse" />
  </defs>
  <ellipse
     style="fill:none;fill-opacity:0;stroke:url(#radialGradient3786);stroke-width:37.5001;stroke-miterlimit:4;stroke-dasharray:none;stroke-opacity:1;marker-start:none"
     id="path3803"
     inkscape:export-filename="/home/voegtlin/logos/electrum_blue_128.png"
     inkscape:export-xdpi="15.13"
     inkscape:export-ydpi="15.13"
     cx="389.90555"
     cy="389.90558"
     rx="366.15549"
     ry="173.5993" />
  <ellipse
     transform="matrix(-0.50141536,-0.8652067,0.86684024,-0.498586,0,0)"
     id="path4023"
     style="fill:none;fill-opacity:0;stroke:url(#radialGradient3796);stroke-width:37.5002;stroke-miterlimit:4;stroke-dasharray:none;stroke-opacity:1;marker-start:none"
     inkscape:export-filename="/home/voegtlin/logos/electrum_blue_128.png"
     inkscape:export-xdpi="15.13"
     inkscape:export-ydpi="15.13"
     cx="-532.39014"
     cy="141.84494"
     rx="365.12195"
     ry="174.09163" />
  <ellipse
     style="fill:none;fill-opacity:0;stroke:url(#radialGradient3800);stroke-width:37.5002;stroke-miterlimit:4;stroke-dasharray:none;stroke-opacity:1;marker-start:none"
     id="path4029"
     transform="matrix(-0.50141531,0.86520673,-0.86684024,-0.498586,0,0)"
     inkscape:export-filename="/home/voegtlin/logos/electrum_blue_128.png"
     inkscape:export-xdpi="15.13"
     inkscape:export-ydpi="15.13"
     cx="143.58517"
     cy="-532.85626"
     rx="365.12195"
     ry="174.09163" />
  <g
     id="g7889"
     transform="matrix(2.0986918,0,0,2.0986918,290.20807,285.92499)">
	<rect
   x="20.1"
   y="46.799999"
   class="st0"
   width="6.6999998"
   height="6.6999998"
   id="rect7827"
   style="fill:#ff997d" />

	<g
   id="g7835">
		<polygon
   class="st1"
   points="20.1,26.8 20.1,20.1 20.1,13.4 13.4,13.4 13.4,20.1 13.4,26.8 "
   id="polygon7829"
   style="fill:#5b5f6e" />

		<rect
   x="26.799999"
   y="20.1"
   class="st1"
   width="6.6999998"
   height="6.6999998"
   id="rect7831"
   style="fill:#5b5f6e" />

		<rect
   x="33.5"
   y="13.4"
   class="st1"
   width="6.6999998"
   height="6.6999998"
   id="rect7833"
   style="fill:#5b5f6e" />

	</g>

	<g
   id="g7841">
		<polygon
   class="st2"
   points="20.1,46.8 20.1,40.2 20.1,33.5 13.4,33.5 13.4,40.2 13.4,46.8 "
   id="polygon7837"
   style="fill:#342704" />

		<polygon
   class="st2"
   points="33.5,46.8 40.2,46.8 40.2,40.2 40.2,33.5 33.5,33.5 33.5,40.2 "
   id="polygon7839"
   style="fill:#342704" />

	</g>

	<g
   id="g7847">
		<polygon
   class="st3"
   points="13.4,20.1 13.4,13.4 13.4,6.7 6.7,6.7 6.7,13.4 6.7,20.1 "
   id="polygon7843"
   style="fill:#f2ceac" />

		<polygon
   class="st3"
   points="53.5,13.4 53.5,6.7 46.8,6.7 40.2,6.7 40.2,13.4 40.2,20.1 46.8,20.1 53.5,20.1 "
   id="polygon7845"
   style="fill:#f2ceac" />

	</g>

	<polygon
   class="st4"
   points="26.8,26.8 26.8,20.1 20.1,20.1 20.1,26.8 13.4,26.8 13.4,33.5 20.1,33.5 20.1,40.2 20.1,46.8 26.8,46.8 26.8,53.5 20.1,53.5 20.1,46.8 13.4,46.8 13.4,40.2 13.4,33.5 6.7,33.5 6.7,40.2 6.7,46.8 6.7,53.5 13.4,53.5 13.4,60.2 20.1,60.2 20.1,66.9 20.1,73.6 20.1,80.3 20.1,87 26.8,87 26.8,80.3 26.8,73.6 33.5,73.6 33.5,80.3 33.5,87 40.2,87 40.2,80.3 40.2,73.6 46.8,73.6 46.8,80.3 53.5,80.3 60.2,80.3 60.2,73.6 66.9,73.6 66.9,80.3 66.9,87 73.6,87 73.6,80.3 73.6,73.6 73.6,66.9 66.9,66.9 66.9,60.2 60.2,60.2 53.5,60.2 46.8,60.2 46.8,53.5 53.5,53.5 53.5,46.8 46.8,46.8 40.2,46.8 33.5,46.8 33.5,40.2 26.8,40.2 26.8,33.5 "
   id="polygon7849"
   style="fill:#feffff" />

	<g
   id="g7861">
		<polygon
   class="st5"
   points="13.4,33.5 13.4,26.8 13.4,20.1 6.7,20.1 6.7,26.8 6.7,33.5 "
   id="polygon7851"
   style="fill:#bc8500" />

		<polygon
   class="st5"
   points="40.2,40.2 40.2,46.8 46.8,46.8 53.5,46.8 53.5,40.2 53.5,33.5 53.5,26.8 53.5,20.1 46.8,20.1 40.2,20.1 33.5,20.1 33.5,26.8 26.8,26.8 26.8,33.5 26.8,40.2 33.5,40.2 33.5,33.5 40.2,33.5 "
   id="polygon7853"
   style="fill:#bc8500" />

		<polygon
   class="st5"
   points="53.5,60.2 60.2,60.2 66.9,60.2 66.9,53.5 60.2,53.5 53.5,53.5 "
   id="polygon7855"
   style="fill:#bc8500" />

		<rect
   x="66.900002"
   y="60.200001"
   class="st5"
   width="6.6999998"
   height="6.6999998"
   id="rect7857"
   style="fill:#bc8500" />

		<polygon
   class="st5"
   points="80.3,46.8 80.3,53.5 73.6,53.5 73.6,60.2 80.3,60.2 87,60.2 87,53.5 87,46.8 93.7,46.8 93.7,40.2 87,40.2 80.3,40.2 "
   id="polygon7859"
   style="fill:#bc8500" />

	</g>

	<g
   id="g7887">
		<rect
   x="13.4"
   y="6.6999998"
   width="6.6999998"
   height="6.6999998"
   id="rect7863" />

		<rect
   x="6.6999998"
   y="53.5"
   width="6.6999998"
   height="6.6999998"
   id="rect7865" />

		<polygon
   points="0,33.5 0,40.2 0,46.8 0,53.5 6.7,53.5 6.7,46.8 6.7,40.2 6.7,33.5 6.7,26.8 6.7,20.1 6.7,13.4 6.7,6.7 13.4,6.7 13.4,0 6.7,0 0,0 0,6.7 0,13.4 0,20.1 0,26.8 "
   id="polygon7867" />

		<polygon
   points="33.5,13.4 26.8,13.4 20.1,13.4 20.1,20.1 26.8,20.1 33.5,20.1 "
   id="polygon7869" />

		<rect
   x="33.5"
   y="6.6999998"
   width="6.6999998"
   height="6.6999998"
   id="rect7871" />

		<polygon
   points="60.2,26.8 60.2,20.1 60.2,13.4 60.2,6.7 60.2,0 53.5,0 46.8,0 40.2,0 40.2,6.7 46.8,6.7 53.5,6.7 53.5,13.4 53.5,20.1 53.5,26.8 53.5,33.5 53.5,40.2 53.5,46.8 53.5,53.5 60.2,53.5 66.9,53.5 66.9,46.8 60.2,46.8 60.2,40.2 60.2,33.5 "
   id="polygon7873" />

		<rect
   x="46.799999"
   y="53.5"
   width="6.6999998"
   height="6.6999998"
   id="rect7875" />

		<rect
   x="66.900002"
   y="53.5"
   width="6.6999998"
   height="6.6999998"
   id="rect7877" />

		<polygon
   points="73.6,40.2 73.6,46.8 73.6,53.5 80.3,53.5 80.3,46.8 80.3,40.2 "
   id="polygon7879" />

		<polygon
   points="40.2,80.3 40.2,87 33.5,87 33.5,80.3 33.5,73.6 26.8,73.6 26.8,80.3 26.8,87 20.1,87 20.1,80.3 20.1,73.6 20.1,66.9 20.1,60.2 13.4,60.2 13.4,66.9 13.4,73.6 13.4,80.3 13.4,87 13.4,93.7 20.1,93.7 26.8,93.7 33.5,93.7 40.2,93.7 46.8,93.7 46.8,87 53.5,87 53.5,93.7 60.2,93.7 66.9,93.7 73.6,93.7 80.3,93.7 80.3,87 80.3,80.3 80.3,73.6 80.3,66.9 87,66.9 87,60.2 80.3,60.2 73.6,60.2 73.6,66.9 73.6,73.6 73.6,80.3 73.6,87 66.9,87 66.9,80.3 66.9,73.6 60.2,73.6 60.2,80.3 53.5,80.3 46.8,80.3 46.8,73.6 40.2,73.6 "
   id="polygon7881" />

		<polygon
   points="87,33.5 80.3,33.5 80.3,40.2 87,40.2 93.7,40.2 93.7,33.5 "
   id="polygon7883" />

		<polygon
   points="87,60.2 93.7,60.2 93.7,53.5 100.4,53.5 100.4,46.8 100.4,40.2 93.7,40.2 93.7,46.8 87,46.8 87,53.5 "
   id="polygon7885" />

	</g>

</g>
</svg>
